<?xml version="1.0" encoding="UTF-8" standalone="no"?>
<!DOCTYPE svg PUBLIC "-//W3C//DTD SVG 1.1//EN"
 "http://www.w3.org/Graphics/SVG/1.1/DTD/svg11.dtd">
<!-- Generated by graphviz version 2.40.1 (20161225.0304)
 -->
<!-- Pages: 1 -->
<svg width="244pt" height="371pt"
 viewBox="0.00 0.00 244.00 371.00" xmlns="http://www.w3.org/2000/svg" xmlns:xlink="http://www.w3.org/1999/xlink">
<g id="graph0" class="graph" transform="scale(1 1) rotate(0) translate(4 367)">
<polygon fill="#ffffff" stroke="transparent" points="-4,4 -4,-367 240,-367 240,4 -4,4"/>
<g id="clust1" class="cluster">
<title>cluster_Analysis</title>
<polygon fill="none" stroke="#000000" points="8,-152 8,-227 122,-227 122,-152 8,-152"/>
<text text-anchor="middle" x="65" y="-211.8" font-family="Times,serif" font-size="14.00" fill="#000000">Analysis</text>
</g>
<g id="clust2" class="cluster">
<title>cluster_data</title>
<polygon fill="none" stroke="#000000" points="130,-152 130,-227 228,-227 228,-152 130,-152"/>
<text text-anchor="middle" x="179" y="-211.8" font-family="Times,serif" font-size="14.00" fill="#000000">Data</text>
</g>
<!-- Measurements -->
<g id="node1" class="node">
<title>Measurements</title>
<polygon fill="none" stroke="#000000" points="114,-196 20,-196 16,-192 16,-160 110,-160 114,-164 114,-196"/>
<polyline fill="none" stroke="#000000" points="110,-192 16,-192 "/>
<polyline fill="none" stroke="#000000" points="110,-192 110,-160 "/>
<polyline fill="none" stroke="#000000" points="110,-192 114,-196 "/>
<text text-anchor="middle" x="65" y="-174.3" font-family="Times,serif" font-size="14.00" fill="#000000">Measurements</text>
</g>
<!-- Uncertainty Propagation -->
<g id="node3" class="node">
<title>Uncertainty Propagation</title>
<ellipse fill="none" stroke="#000000" cx="121" cy="-91" rx="100.1823" ry="18"/>
<text text-anchor="middle" x="121" y="-87.3" font-family="Times,serif" font-size="14.00" fill="#000000">Uncertainty Propagation</text>
</g>
<!-- Measurements&#45;&gt;Uncertainty Propagation -->
<g id="edge1" class="edge">
<title>Measurements&#45;&gt;Uncertainty Propagation</title>
<path fill="none" stroke="#000000" d="M76.6032,-159.9735C84.4872,-147.7252 95.0491,-131.3165 103.8933,-117.5766"/>
<polygon fill="#000000" stroke="#000000" points="106.9422,-119.3064 109.4116,-109.0034 101.0561,-115.5176 106.9422,-119.3064"/>
<text text-anchor="middle" x="120" y="-130.8" font-family="Times,serif" font-size="14.00" fill="#000000"> Reduce</text>
</g>
<!-- Histograms -->
<g id="node2" class="node">
<title>Histograms</title>
<polygon fill="none" stroke="#000000" points="219.5,-196 142.5,-196 138.5,-192 138.5,-160 215.5,-160 219.5,-164 219.5,-196"/>
<polyline fill="none" stroke="#000000" points="215.5,-192 138.5,-192 "/>
<polyline fill="none" stroke="#000000" points="215.5,-192 215.5,-160 "/>
<polyline fill="none" stroke="#000000" points="215.5,-192 219.5,-196 "/>
<text text-anchor="middle" x="179" y="-174.3" font-family="Times,serif" font-size="14.00" fill="#000000">Histograms</text>
</g>
<!-- Histograms&#45;&gt;Uncertainty Propagation -->
<g id="edge2" class="edge">
<title>Histograms&#45;&gt;Uncertainty Propagation</title>
<path fill="none" stroke="#000000" d="M166.9824,-159.9735C158.8168,-147.7252 147.8777,-131.3165 138.7177,-117.5766"/>
<polygon fill="#000000" stroke="#000000" points="141.4615,-115.3824 133.0022,-109.0034 135.6371,-119.2653 141.4615,-115.3824"/>
<text text-anchor="middle" x="176" y="-130.8" font-family="Times,serif" font-size="14.00" fill="#000000"> Reduce</text>
</g>
<!-- Result + Uncertainty -->
<g id="node4" class="node">
<title>Result + Uncertainty</title>
<polygon fill="none" stroke="#000000" points="187.5,-36 54.5,-36 54.5,0 187.5,0 187.5,-36"/>
<text text-anchor="middle" x="121" y="-14.3" font-family="Times,serif" font-size="14.00" fill="#000000">Result + Uncertainty</text>
</g>
<!-- Uncertainty Propagation&#45;&gt;Result + Uncertainty -->
<g id="edge3" class="edge">
<title>Uncertainty Propagation&#45;&gt;Result + Uncertainty</title>
<path fill="none" stroke="#000000" d="M121,-72.9551C121,-64.8828 121,-55.1764 121,-46.1817"/>
<polygon fill="#000000" stroke="#000000" points="124.5001,-46.0903 121,-36.0904 117.5001,-46.0904 124.5001,-46.0903"/>
</g>
<!-- Histogram Fill Service -->
<g id="node5" class="node">
<title>Histogram Fill Service</title>
<path fill="none" stroke="#000000" d="M193,-359.7273C193,-361.5331 160.7284,-363 121,-363 81.2716,-363 49,-361.5331 49,-359.7273 49,-359.7273 49,-330.2727 49,-330.2727 49,-328.4669 81.2716,-327 121,-327 160.7284,-327 193,-328.4669 193,-330.2727 193,-330.2727 193,-359.7273 193,-359.7273"/>
<path fill="none" stroke="#000000" d="M193,-359.7273C193,-357.9214 160.7284,-356.4545 121,-356.4545 81.2716,-356.4545 49,-357.9214 49,-359.7273"/>
<text text-anchor="middle" x="121" y="-341.3" font-family="Times,serif" font-size="14.00" fill="#000000">Histogram Fill Service</text>
</g>
<!-- Interfacing Layer -->
<g id="node6" class="node">
<title>Interfacing Layer</title>
<polygon fill="none" stroke="#000000" points="233.4754,-290 54.5522,-290 8.5246,-254 187.4478,-254 233.4754,-290"/>
<text text-anchor="middle" x="121" y="-268.3" font-family="Times,serif" font-size="14.00" fill="#000000">Interfacing Layer</text>
</g>
<!-- Histogram Fill Service&#45;&gt;Interfacing Layer -->
<g id="edge4" class="edge">
<title>Histogram Fill Service&#45;&gt;Interfacing Layer</title>
<path fill="none" stroke="#000000" d="M121,-326.9551C121,-318.8828 121,-309.1764 121,-300.1817"/>
<polygon fill="#000000" stroke="#000000" points="124.5001,-300.0903 121,-290.0904 117.5001,-300.0904 124.5001,-300.0903"/>
</g>
<!-- Interfacing Layer&#45;&gt;Measurements -->
<g id="edge5" class="edge">
<title>Interfacing Layer&#45;&gt;Measurements</title>
<path fill="none" stroke="#000000" d="M110.2026,-253.8759C101.9132,-239.9615 90.3395,-220.5342 80.9786,-204.8211"/>
<polygon fill="#000000" stroke="#000000" points="83.8892,-202.8682 75.7642,-196.0685 77.8755,-206.4509 83.8892,-202.8682"/>
</g>
<!-- Interfacing Layer&#45;&gt;Histograms -->
<g id="edge6" class="edge">
<title>Interfacing Layer&#45;&gt;Histograms</title>
<path fill="none" stroke="#000000" d="M132.183,-253.8759C140.7685,-239.9615 152.7555,-220.5342 162.4508,-204.8211"/>
<polygon fill="#000000" stroke="#000000" points="165.5789,-206.4168 167.8513,-196.0685 159.6216,-202.741 165.5789,-206.4168"/>
</g>
</g>
</svg>
