<?xml version="1.0" encoding="UTF-8" standalone="no"?>
<!DOCTYPE svg PUBLIC "-//W3C//DTD SVG 1.1//EN"
 "http://www.w3.org/Graphics/SVG/1.1/DTD/svg11.dtd">
<!-- Generated by graphviz version 2.40.1 (20161225.0304)
 -->
<!-- Pages: 1 -->
<svg width="559pt" height="335pt"
 viewBox="0.00 0.00 559.00 335.00" xmlns="http://www.w3.org/2000/svg" xmlns:xlink="http://www.w3.org/1999/xlink">
<g id="graph0" class="graph" transform="scale(1 1) rotate(0) translate(4 331)">
<polygon fill="#ffffff" stroke="transparent" points="-4,4 -4,-331 555,-331 555,4 -4,4"/>
<g id="clust1" class="cluster">
<title>cluster_Analysis</title>
<polygon fill="none" stroke="#000000" points="8,-136 8,-211 415,-211 415,-136 8,-136"/>
<text text-anchor="middle" x="211.5" y="-195.8" font-family="Times,serif" font-size="14.00" fill="#000000">Analysis</text>
</g>
<!-- Nominal Measurement -->
<g id="node1" class="node">
<title>Nominal Measurement</title>
<polygon fill="none" stroke="#000000" points="406.5,-180 261.5,-180 261.5,-144 406.5,-144 406.5,-180"/>
<text text-anchor="middle" x="334" y="-158.3" font-family="Times,serif" font-size="14.00" fill="#000000">Nominal Measurement</text>
</g>
<!-- Uncertainty Propagation -->
<g id="node3" class="node">
<title>Uncertainty Propagation</title>
<ellipse fill="none" stroke="#000000" cx="393" cy="-90" rx="100.1823" ry="18"/>
<text text-anchor="middle" x="393" y="-86.3" font-family="Times,serif" font-size="14.00" fill="#000000">Uncertainty Propagation</text>
</g>
<!-- Nominal Measurement&#45;&gt;Uncertainty Propagation -->
<g id="edge1" class="edge">
<title>Nominal Measurement&#45;&gt;Uncertainty Propagation</title>
<path fill="none" stroke="#000000" d="M348.8882,-143.8314C355.8586,-135.3251 364.2851,-125.0419 371.8977,-115.752"/>
<polygon fill="#000000" stroke="#000000" points="374.6899,-117.8666 378.321,-107.9134 369.2755,-113.4298 374.6899,-117.8666"/>
</g>
<!-- Systematically&#45;shifted Measurements -->
<g id="node2" class="node">
<title>Systematically&#45;shifted Measurements</title>
<polygon fill="none" stroke="#000000" points="243.5,-180 20.5,-180 16.5,-176 16.5,-144 239.5,-144 243.5,-148 243.5,-180"/>
<polyline fill="none" stroke="#000000" points="239.5,-176 16.5,-176 "/>
<polyline fill="none" stroke="#000000" points="239.5,-176 239.5,-144 "/>
<polyline fill="none" stroke="#000000" points="239.5,-176 243.5,-180 "/>
<text text-anchor="middle" x="130" y="-158.3" font-family="Times,serif" font-size="14.00" fill="#000000">Systematically&#45;shifted Measurements</text>
</g>
<!-- Systematically&#45;shifted Measurements&#45;&gt;Uncertainty Propagation -->
<g id="edge2" class="edge">
<title>Systematically&#45;shifted Measurements&#45;&gt;Uncertainty Propagation</title>
<path fill="none" stroke="#000000" d="M196.0265,-143.9243C236.3699,-132.8797 287.7516,-118.8132 327.9205,-107.8164"/>
<polygon fill="#000000" stroke="#000000" points="328.8945,-111.1787 337.6154,-105.1623 327.0461,-104.4271 328.8945,-111.1787"/>
</g>
<!-- Result + Uncertainty -->
<g id="node4" class="node">
<title>Result + Uncertainty</title>
<polygon fill="none" stroke="#000000" points="459.5,-36 326.5,-36 326.5,0 459.5,0 459.5,-36"/>
<text text-anchor="middle" x="393" y="-14.3" font-family="Times,serif" font-size="14.00" fill="#000000">Result + Uncertainty</text>
</g>
<!-- Uncertainty Propagation&#45;&gt;Result + Uncertainty -->
<g id="edge3" class="edge">
<title>Uncertainty Propagation&#45;&gt;Result + Uncertainty</title>
<path fill="none" stroke="#000000" d="M393,-71.8314C393,-64.131 393,-54.9743 393,-46.4166"/>
<polygon fill="#000000" stroke="#000000" points="396.5001,-46.4132 393,-36.4133 389.5001,-46.4133 396.5001,-46.4132"/>
</g>
<!-- Histogram Fill Service -->
<g id="node5" class="node">
<title>Histogram Fill Service</title>
<path fill="none" stroke="#000000" d="M465,-323.7273C465,-325.5331 432.7284,-327 393,-327 353.2716,-327 321,-325.5331 321,-323.7273 321,-323.7273 321,-294.2727 321,-294.2727 321,-292.4669 353.2716,-291 393,-291 432.7284,-291 465,-292.4669 465,-294.2727 465,-294.2727 465,-323.7273 465,-323.7273"/>
<path fill="none" stroke="#000000" d="M465,-323.7273C465,-321.9214 432.7284,-320.4545 393,-320.4545 353.2716,-320.4545 321,-321.9214 321,-323.7273"/>
<text text-anchor="middle" x="393" y="-305.3" font-family="Times,serif" font-size="14.00" fill="#000000">Histogram Fill Service</text>
</g>
<!-- Interfacing Layer -->
<g id="node6" class="node">
<title>Interfacing Layer</title>
<polygon fill="none" stroke="#000000" points="505.4754,-255 326.5522,-255 280.5246,-219 459.4478,-219 505.4754,-255"/>
<text text-anchor="middle" x="393" y="-233.3" font-family="Times,serif" font-size="14.00" fill="#000000">Interfacing Layer</text>
</g>
<!-- Histogram Fill Service&#45;&gt;Interfacing Layer -->
<g id="edge4" class="edge">
<title>Histogram Fill Service&#45;&gt;Interfacing Layer</title>
<path fill="none" stroke="#000000" d="M393,-290.8314C393,-283.131 393,-273.9743 393,-265.4166"/>
<polygon fill="#000000" stroke="#000000" points="396.5001,-265.4132 393,-255.4133 389.5001,-265.4133 396.5001,-265.4132"/>
</g>
<!-- Interfacing Layer&#45;&gt;Nominal Measurement -->
<g id="edge5" class="edge">
<title>Interfacing Layer&#45;&gt;Nominal Measurement</title>
<path fill="none" stroke="#000000" d="M378.7177,-218.8446C371.5239,-209.6999 362.6676,-198.4418 354.7395,-188.3638"/>
<polygon fill="#000000" stroke="#000000" points="357.289,-185.9437 348.3552,-180.2482 351.7873,-190.2717 357.289,-185.9437"/>
</g>
<!-- Interfacing Layer&#45;&gt;Systematically&#45;shifted Measurements -->
<g id="edge6" class="edge">
<title>Interfacing Layer&#45;&gt;Systematically&#45;shifted Measurements</title>
<path fill="none" stroke="#000000" d="M284.3552,-218.999C273.694,-216.5825 263.0934,-213.9173 253,-211 227.9779,-203.7678 201.0087,-193.338 178.7184,-183.9581"/>
<polygon fill="#000000" stroke="#000000" points="180.0427,-180.7179 169.4712,-180.0148 177.2969,-187.1569 180.0427,-180.7179"/>
</g>
<!-- Data1 -->
<g id="node7" class="node">
<title>Data1</title>
<polygon fill="none" stroke="#000000" points="479,-180 425,-180 425,-144 479,-144 479,-180"/>
<text text-anchor="middle" x="452" y="-158.3" font-family="Times,serif" font-size="14.00" fill="#000000">Data1</text>
</g>
<!-- Interfacing Layer&#45;&gt;Data1 -->
<g id="edge7" class="edge">
<title>Interfacing Layer&#45;&gt;Data1</title>
<path fill="none" stroke="#000000" d="M411.9237,-218.9523C414.3844,-216.3558 416.8083,-213.6607 419,-211 424.7181,-204.0584 430.3907,-196.1232 435.3781,-188.6895"/>
<polygon fill="#000000" stroke="#000000" points="438.3323,-190.567 440.8799,-180.283 432.4752,-186.7337 438.3323,-190.567"/>
</g>
<!-- Data2 -->
<g id="node8" class="node">
<title>Data2</title>
<polygon fill="none" stroke="#000000" points="551,-180 497,-180 497,-144 551,-144 551,-180"/>
<text text-anchor="middle" x="524" y="-158.3" font-family="Times,serif" font-size="14.00" fill="#000000">Data2</text>
</g>
<!-- Interfacing Layer&#45;&gt;Data2 -->
<g id="edge8" class="edge">
<title>Interfacing Layer&#45;&gt;Data2</title>
<path fill="none" stroke="#000000" d="M464.8563,-222.9954C473.0363,-219.7856 480.954,-215.8428 488,-211 496.3053,-205.2918 503.4227,-197.0265 509.0831,-188.9051"/>
<polygon fill="#000000" stroke="#000000" points="512.1681,-190.5792 514.6408,-180.2769 506.2832,-186.7885 512.1681,-190.5792"/>
</g>
<!-- Data1&#45;&gt;Uncertainty Propagation -->
<g id="edge9" class="edge">
<title>Data1&#45;&gt;Uncertainty Propagation</title>
<path fill="none" stroke="#000000" d="M437.1118,-143.8314C430.1414,-135.3251 421.7149,-125.0419 414.1023,-115.752"/>
<polygon fill="#000000" stroke="#000000" points="416.7245,-113.4298 407.679,-107.9134 411.3101,-117.8666 416.7245,-113.4298"/>
</g>
<!-- Data2&#45;&gt;Uncertainty Propagation -->
<g id="edge10" class="edge">
<title>Data2&#45;&gt;Uncertainty Propagation</title>
<path fill="none" stroke="#000000" d="M499.9902,-143.785C496.0594,-141.0591 491.9718,-138.3712 488,-136 473.0156,-127.0543 456.0328,-118.3984 440.6121,-111.0547"/>
<polygon fill="#000000" stroke="#000000" points="441.7841,-107.7386 431.2442,-106.6609 438.8115,-114.0761 441.7841,-107.7386"/>
</g>
</g>
</svg>
