<?xml version="1.0" encoding="UTF-8" standalone="no"?>
<!DOCTYPE svg PUBLIC "-//W3C//DTD SVG 1.1//EN"
 "http://www.w3.org/Graphics/SVG/1.1/DTD/svg11.dtd">
<!-- Generated by graphviz version 2.40.1 (20161225.0304)
 -->
<!-- Pages: 1 -->
<svg width="487pt" height="335pt"
 viewBox="0.00 0.00 487.00 335.00" xmlns="http://www.w3.org/2000/svg" xmlns:xlink="http://www.w3.org/1999/xlink">
<g id="graph0" class="graph" transform="scale(1 1) rotate(0) translate(4 331)">
<polygon fill="#ffffff" stroke="transparent" points="-4,4 -4,-331 483,-331 483,4 -4,4"/>
<g id="clust1" class="cluster">
<title>cluster_Analysis</title>
<polygon fill="none" stroke="#000000" points="8,-136 8,-211 415,-211 415,-136 8,-136"/>
<text text-anchor="middle" x="211.5" y="-195.8" font-family="Times,serif" font-size="14.00" fill="#000000">Analysis</text>
</g>
<!-- Nominal Measurement -->
<g id="node1" class="node">
<title>Nominal Measurement</title>
<polygon fill="none" stroke="#000000" points="406.5,-180 261.5,-180 261.5,-144 406.5,-144 406.5,-180"/>
<text text-anchor="middle" x="334" y="-158.3" font-family="Times,serif" font-size="14.00" fill="#000000">Nominal Measurement</text>
</g>
<!-- Uncertainty Propagation -->
<g id="node3" class="node">
<title>Uncertainty Propagation</title>
<ellipse fill="none" stroke="#000000" cx="334" cy="-90" rx="100.1823" ry="18"/>
<text text-anchor="middle" x="334" y="-86.3" font-family="Times,serif" font-size="14.00" fill="#000000">Uncertainty Propagation</text>
</g>
<!-- Nominal Measurement&#45;&gt;Uncertainty Propagation -->
<g id="edge1" class="edge">
<title>Nominal Measurement&#45;&gt;Uncertainty Propagation</title>
<path fill="none" stroke="#000000" d="M334,-143.8314C334,-136.131 334,-126.9743 334,-118.4166"/>
<polygon fill="#000000" stroke="#000000" points="337.5001,-118.4132 334,-108.4133 330.5001,-118.4133 337.5001,-118.4132"/>
</g>
<!-- Systematically&#45;shifted Measurements -->
<g id="node2" class="node">
<title>Systematically&#45;shifted Measurements</title>
<polygon fill="none" stroke="#000000" points="243.5,-180 20.5,-180 16.5,-176 16.5,-144 239.5,-144 243.5,-148 243.5,-180"/>
<polyline fill="none" stroke="#000000" points="239.5,-176 16.5,-176 "/>
<polyline fill="none" stroke="#000000" points="239.5,-176 239.5,-144 "/>
<polyline fill="none" stroke="#000000" points="239.5,-176 243.5,-180 "/>
<text text-anchor="middle" x="130" y="-158.3" font-family="Times,serif" font-size="14.00" fill="#000000">Systematically&#45;shifted Measurements</text>
</g>
<!-- Systematically&#45;shifted Measurements&#45;&gt;Uncertainty Propagation -->
<g id="edge2" class="edge">
<title>Systematically&#45;shifted Measurements&#45;&gt;Uncertainty Propagation</title>
<path fill="none" stroke="#000000" d="M181.2145,-143.9243C210.9277,-133.4373 248.3604,-120.2258 278.7371,-109.5045"/>
<polygon fill="#000000" stroke="#000000" points="280.068,-112.7465 288.333,-106.1178 277.7382,-106.1456 280.068,-112.7465"/>
</g>
<!-- Result + Uncertainty -->
<g id="node4" class="node">
<title>Result + Uncertainty</title>
<polygon fill="none" stroke="#000000" points="400.5,-36 267.5,-36 267.5,0 400.5,0 400.5,-36"/>
<text text-anchor="middle" x="334" y="-14.3" font-family="Times,serif" font-size="14.00" fill="#000000">Result + Uncertainty</text>
</g>
<!-- Uncertainty Propagation&#45;&gt;Result + Uncertainty -->
<g id="edge3" class="edge">
<title>Uncertainty Propagation&#45;&gt;Result + Uncertainty</title>
<path fill="none" stroke="#000000" d="M334,-71.8314C334,-64.131 334,-54.9743 334,-46.4166"/>
<polygon fill="#000000" stroke="#000000" points="337.5001,-46.4132 334,-36.4133 330.5001,-46.4133 337.5001,-46.4132"/>
</g>
<!-- Histogram Fill Service -->
<g id="node5" class="node">
<title>Histogram Fill Service</title>
<path fill="none" stroke="#000000" d="M406,-323.7273C406,-325.5331 373.7284,-327 334,-327 294.2716,-327 262,-325.5331 262,-323.7273 262,-323.7273 262,-294.2727 262,-294.2727 262,-292.4669 294.2716,-291 334,-291 373.7284,-291 406,-292.4669 406,-294.2727 406,-294.2727 406,-323.7273 406,-323.7273"/>
<path fill="none" stroke="#000000" d="M406,-323.7273C406,-321.9214 373.7284,-320.4545 334,-320.4545 294.2716,-320.4545 262,-321.9214 262,-323.7273"/>
<text text-anchor="middle" x="334" y="-305.3" font-family="Times,serif" font-size="14.00" fill="#000000">Histogram Fill Service</text>
</g>
<!-- Interfacing Layer -->
<g id="node6" class="node">
<title>Interfacing Layer</title>
<polygon fill="none" stroke="#000000" points="446.4754,-255 267.5522,-255 221.5246,-219 400.4478,-219 446.4754,-255"/>
<text text-anchor="middle" x="334" y="-233.3" font-family="Times,serif" font-size="14.00" fill="#000000">Interfacing Layer</text>
</g>
<!-- Histogram Fill Service&#45;&gt;Interfacing Layer -->
<g id="edge4" class="edge">
<title>Histogram Fill Service&#45;&gt;Interfacing Layer</title>
<path fill="none" stroke="#000000" d="M334,-290.8314C334,-283.131 334,-273.9743 334,-265.4166"/>
<polygon fill="#000000" stroke="#000000" points="337.5001,-265.4132 334,-255.4133 330.5001,-265.4133 337.5001,-265.4132"/>
</g>
<!-- Interfacing Layer&#45;&gt;Nominal Measurement -->
<g id="edge5" class="edge">
<title>Interfacing Layer&#45;&gt;Nominal Measurement</title>
<path fill="none" stroke="#000000" d="M334,-218.8446C334,-210.3401 334,-200.0076 334,-190.4964"/>
<polygon fill="#000000" stroke="#000000" points="337.5001,-190.2481 334,-180.2482 330.5001,-190.2482 337.5001,-190.2481"/>
</g>
<!-- Interfacing Layer&#45;&gt;Systematically&#45;shifted Measurements -->
<g id="edge6" class="edge">
<title>Interfacing Layer&#45;&gt;Systematically&#45;shifted Measurements</title>
<path fill="none" stroke="#000000" d="M275.8747,-218.8736C268.1551,-216.3111 260.3668,-213.6462 253,-211 229.7272,-202.6403 204.2931,-192.6534 182.624,-183.8832"/>
<polygon fill="#000000" stroke="#000000" points="183.8524,-180.6045 173.2706,-180.0789 181.215,-187.0887 183.8524,-180.6045"/>
</g>
<!-- Data -->
<g id="node7" class="node">
<title>Data</title>
<polygon fill="none" stroke="#000000" points="479,-180 425,-180 425,-144 479,-144 479,-180"/>
<text text-anchor="middle" x="452" y="-158.3" font-family="Times,serif" font-size="14.00" fill="#000000">Data</text>
</g>
<!-- Interfacing Layer&#45;&gt;Data -->
<g id="edge7" class="edge">
<title>Interfacing Layer&#45;&gt;Data</title>
<path fill="none" stroke="#000000" d="M402.8287,-220.5522C408.5541,-217.8343 414.0396,-214.6738 419,-211 426.7848,-205.2344 433.3174,-197.053 438.462,-189.0233"/>
<polygon fill="#000000" stroke="#000000" points="441.6225,-190.5532 443.6735,-180.1588 435.5881,-187.0055 441.6225,-190.5532"/>
</g>
<!-- Data&#45;&gt;Uncertainty Propagation -->
<g id="edge8" class="edge">
<title>Data&#45;&gt;Uncertainty Propagation</title>
<path fill="none" stroke="#000000" d="M430.0187,-143.8435C426.4118,-141.11 422.6565,-138.4044 419,-136 406.0141,-127.4609 391.2978,-119.0791 377.8032,-111.8586"/>
<polygon fill="#000000" stroke="#000000" points="379.1709,-108.6231 368.6923,-107.0577 375.9076,-114.8159 379.1709,-108.6231"/>
</g>
</g>
</svg>
