<?xml version="1.0" encoding="UTF-8" standalone="no"?>
<!DOCTYPE svg PUBLIC "-//W3C//DTD SVG 1.1//EN"
 "http://www.w3.org/Graphics/SVG/1.1/DTD/svg11.dtd">
<!-- Generated by graphviz version 2.40.1 (20161225.0304)
 -->
<!-- Pages: 1 -->
<svg width="271pt" height="444pt"
 viewBox="0.00 0.00 270.77 444.00" xmlns="http://www.w3.org/2000/svg" xmlns:xlink="http://www.w3.org/1999/xlink">
<g id="graph0" class="graph" transform="scale(1 1) rotate(0) translate(4 440)">
<polygon fill="#ffffff" stroke="transparent" points="-4,4 -4,-440 266.7744,-440 266.7744,4 -4,4"/>
<g id="clust1" class="cluster">
<title>cluster_Data</title>
<polygon fill="none" stroke="#000000" points="28.0911,-225 28.0911,-300 126.0911,-300 126.0911,-225 28.0911,-225"/>
<text text-anchor="middle" x="77.0911" y="-284.8" font-family="Times,serif" font-size="14.00" fill="#000000">Data</text>
</g>
<g id="clust2" class="cluster">
<title>cluster_Analysis</title>
<polygon fill="none" stroke="#000000" points="134.0911,-225 134.0911,-300 248.0911,-300 248.0911,-225 134.0911,-225"/>
<text text-anchor="middle" x="191.0911" y="-284.8" font-family="Times,serif" font-size="14.00" fill="#000000">Analysis</text>
</g>
<!-- Histograms -->
<g id="node1" class="node">
<title>Histograms</title>
<polygon fill="none" stroke="#000000" points="117.5911,-269 40.5911,-269 36.5911,-265 36.5911,-233 113.5911,-233 117.5911,-237 117.5911,-269"/>
<polyline fill="none" stroke="#000000" points="113.5911,-265 36.5911,-265 "/>
<polyline fill="none" stroke="#000000" points="113.5911,-265 113.5911,-233 "/>
<polyline fill="none" stroke="#000000" points="113.5911,-265 117.5911,-269 "/>
<text text-anchor="middle" x="77.0911" y="-247.3" font-family="Times,serif" font-size="14.00" fill="#000000">Histograms</text>
</g>
<!-- Uncertainty Propagation -->
<g id="node3" class="node">
<title>Uncertainty Propagation</title>
<ellipse fill="none" stroke="#000000" cx="100.0911" cy="-164" rx="100.1823" ry="18"/>
<text text-anchor="middle" x="100.0911" y="-160.3" font-family="Times,serif" font-size="14.00" fill="#000000">Uncertainty Propagation</text>
</g>
<!-- Histograms&#45;&gt;Uncertainty Propagation -->
<g id="edge1" class="edge">
<title>Histograms&#45;&gt;Uncertainty Propagation</title>
<path fill="none" stroke="#000000" d="M81.8567,-232.9735C85.0023,-221.0751 89.1857,-205.2508 92.7521,-191.7606"/>
<polygon fill="#000000" stroke="#000000" points="96.1594,-192.5658 95.3316,-182.0034 89.3919,-190.7766 96.1594,-192.5658"/>
<text text-anchor="middle" x="112.0911" y="-203.8" font-family="Times,serif" font-size="14.00" fill="#000000"> Reduce</text>
</g>
<!-- Measurements -->
<g id="node2" class="node">
<title>Measurements</title>
<polygon fill="none" stroke="#000000" points="240.0911,-269 146.0911,-269 142.0911,-265 142.0911,-233 236.0911,-233 240.0911,-237 240.0911,-269"/>
<polyline fill="none" stroke="#000000" points="236.0911,-265 142.0911,-265 "/>
<polyline fill="none" stroke="#000000" points="236.0911,-265 236.0911,-233 "/>
<polyline fill="none" stroke="#000000" points="236.0911,-265 240.0911,-269 "/>
<text text-anchor="middle" x="191.0911" y="-247.3" font-family="Times,serif" font-size="14.00" fill="#000000">Measurements</text>
</g>
<!-- Measurements&#45;&gt;Uncertainty Propagation -->
<g id="edge2" class="edge">
<title>Measurements&#45;&gt;Uncertainty Propagation</title>
<path fill="none" stroke="#000000" d="M172.933,-232.926C163.0056,-223.1118 150.4504,-210.8085 139.0911,-200 135.2673,-196.3616 131.2021,-192.5491 127.195,-188.8225"/>
<polygon fill="#000000" stroke="#000000" points="129.3562,-186.0537 119.6395,-181.8303 124.6017,-191.1913 129.3562,-186.0537"/>
<text text-anchor="middle" x="176.0911" y="-203.8" font-family="Times,serif" font-size="14.00" fill="#000000"> Reduce</text>
</g>
<!-- Result + Uncertainty -->
<g id="node4" class="node">
<title>Result + Uncertainty</title>
<polygon fill="none" stroke="#000000" points="166.5911,-109 33.5911,-109 33.5911,-73 166.5911,-73 166.5911,-109"/>
<text text-anchor="middle" x="100.0911" y="-87.3" font-family="Times,serif" font-size="14.00" fill="#000000">Result + Uncertainty</text>
</g>
<!-- Uncertainty Propagation&#45;&gt;Result + Uncertainty -->
<g id="edge3" class="edge">
<title>Uncertainty Propagation&#45;&gt;Result + Uncertainty</title>
<path fill="none" stroke="#000000" d="M100.0911,-145.9551C100.0911,-137.8828 100.0911,-128.1764 100.0911,-119.1817"/>
<polygon fill="#000000" stroke="#000000" points="103.5912,-119.0903 100.0911,-109.0904 96.5912,-119.0904 103.5912,-119.0903"/>
</g>
<!-- Minimum? -->
<g id="node7" class="node">
<title>Minimum?</title>
<polygon fill="none" stroke="#000000" points="100.0911,-36 27.3641,-18 100.0911,0 172.8181,-18 100.0911,-36"/>
<text text-anchor="middle" x="100.0911" y="-14.3" font-family="Times,serif" font-size="14.00" fill="#000000">Minimum?</text>
</g>
<!-- Result + Uncertainty&#45;&gt;Minimum? -->
<g id="edge7" class="edge">
<title>Result + Uncertainty&#45;&gt;Minimum?</title>
<path fill="none" stroke="#000000" d="M100.0911,-72.9551C100.0911,-64.8828 100.0911,-55.1764 100.0911,-46.1817"/>
<polygon fill="#000000" stroke="#000000" points="103.5912,-46.0903 100.0911,-36.0904 96.5912,-46.0904 103.5912,-46.0903"/>
</g>
<!-- Histogram Fill Service -->
<g id="node5" class="node">
<title>Histogram Fill Service</title>
<path fill="none" stroke="#000000" d="M205.0911,-432.7273C205.0911,-434.5331 172.8196,-436 133.0911,-436 93.3627,-436 61.0911,-434.5331 61.0911,-432.7273 61.0911,-432.7273 61.0911,-403.2727 61.0911,-403.2727 61.0911,-401.4669 93.3627,-400 133.0911,-400 172.8196,-400 205.0911,-401.4669 205.0911,-403.2727 205.0911,-403.2727 205.0911,-432.7273 205.0911,-432.7273"/>
<path fill="none" stroke="#000000" d="M205.0911,-432.7273C205.0911,-430.9214 172.8196,-429.4545 133.0911,-429.4545 93.3627,-429.4545 61.0911,-430.9214 61.0911,-432.7273"/>
<text text-anchor="middle" x="133.0911" y="-414.3" font-family="Times,serif" font-size="14.00" fill="#000000">Histogram Fill Service</text>
</g>
<!-- Interfacing Layer -->
<g id="node6" class="node">
<title>Interfacing Layer</title>
<polygon fill="none" stroke="#000000" points="245.5666,-363 66.6433,-363 20.6157,-327 199.5389,-327 245.5666,-363"/>
<text text-anchor="middle" x="133.0911" y="-341.3" font-family="Times,serif" font-size="14.00" fill="#000000">Interfacing Layer</text>
</g>
<!-- Histogram Fill Service&#45;&gt;Interfacing Layer -->
<g id="edge4" class="edge">
<title>Histogram Fill Service&#45;&gt;Interfacing Layer</title>
<path fill="none" stroke="#000000" d="M133.0911,-399.9551C133.0911,-391.8828 133.0911,-382.1764 133.0911,-373.1817"/>
<polygon fill="#000000" stroke="#000000" points="136.5912,-373.0903 133.0911,-363.0904 129.5912,-373.0904 136.5912,-373.0903"/>
</g>
<!-- Interfacing Layer&#45;&gt;Histograms -->
<g id="edge5" class="edge">
<title>Interfacing Layer&#45;&gt;Histograms</title>
<path fill="none" stroke="#000000" d="M122.2938,-326.8759C114.0043,-312.9615 102.4306,-293.5342 93.0697,-277.8211"/>
<polygon fill="#000000" stroke="#000000" points="95.9803,-275.8682 87.8553,-269.0685 89.9666,-279.4509 95.9803,-275.8682"/>
</g>
<!-- Interfacing Layer&#45;&gt;Measurements -->
<g id="edge6" class="edge">
<title>Interfacing Layer&#45;&gt;Measurements</title>
<path fill="none" stroke="#000000" d="M144.2741,-326.8759C152.8596,-312.9615 164.8466,-293.5342 174.5419,-277.8211"/>
<polygon fill="#000000" stroke="#000000" points="177.67,-279.4168 179.9425,-269.0685 171.7127,-275.741 177.67,-279.4168"/>
</g>
<!-- Minimum?&#45;&gt;Interfacing Layer -->
<g id="edge8" class="edge">
<title>Minimum?&#45;&gt;Interfacing Layer</title>
<path fill="none" stroke="#000000" d="M122.9759,-30.5184C139.375,-40.3766 161.1212,-55.3707 176.0911,-73 224.9791,-130.573 234.738,-151.4911 252.0911,-225 259.7495,-257.4416 271.0398,-272.5763 252.0911,-300 246.265,-308.4319 229.0247,-316.6641 209.4113,-323.7334"/>
<polygon fill="#000000" stroke="#000000" points="208.2599,-320.4281 199.9501,-327.0007 210.5449,-327.0447 208.2599,-320.4281"/>
</g>
</g>
</svg>
