<?xml version="1.0" encoding="UTF-8" standalone="no"?>
<!DOCTYPE svg PUBLIC "-//W3C//DTD SVG 1.1//EN"
 "http://www.w3.org/Graphics/SVG/1.1/DTD/svg11.dtd">
<!-- Generated by graphviz version 2.40.1 (20161225.0304)
 -->
<!-- Pages: 1 -->
<svg width="628pt" height="408pt"
 viewBox="0.00 0.00 627.66 408.00" xmlns="http://www.w3.org/2000/svg" xmlns:xlink="http://www.w3.org/1999/xlink">
<g id="graph0" class="graph" transform="scale(1 1) rotate(0) translate(4 404)">
<polygon fill="#ffffff" stroke="transparent" points="-4,4 -4,-404 623.6584,-404 623.6584,4 -4,4"/>
<!-- SM -->
<g id="node1" class="node">
<title>SM</title>
<polygon fill="none" stroke="#000000" points="244.601,-400 103.601,-400 99.601,-396 99.601,-362 240.601,-362 244.601,-366 244.601,-400"/>
<polyline fill="none" stroke="#000000" points="240.601,-396 99.601,-396 "/>
<polyline fill="none" stroke="#000000" points="240.601,-396 240.601,-362 "/>
<polyline fill="none" stroke="#000000" points="240.601,-396 244.601,-400 "/>
<text text-anchor="middle" x="172.101" y="-384.8" font-family="Times,serif" font-size="14.00" fill="#000000">Systematically&#45;shifted </text>
<text text-anchor="middle" x="172.101" y="-369.8" font-family="Times,serif" font-size="14.00" fill="#000000">Measurements</text>
</g>
<!-- SE -->
<g id="node2" class="node">
<title>SE</title>
<polygon fill="none" stroke="#000000" points="344.3031,-326 70.3681,-326 -.1011,-290 273.8339,-290 344.3031,-326"/>
<text text-anchor="middle" x="172.101" y="-304.3" font-family="Times,serif" font-size="14.00" fill="#000000">Invoke(Measurement::Eval)</text>
</g>
<!-- SM&#45;&gt;SE -->
<g id="edge1" class="edge">
<title>SM&#45;&gt;SE</title>
<path fill="none" stroke="#000000" d="M172.101,-361.8201C172.101,-354.0975 172.101,-345.0282 172.101,-336.5585"/>
<polygon fill="#000000" stroke="#000000" points="175.6011,-336.2973 172.101,-326.2973 168.6011,-336.2974 175.6011,-336.2973"/>
</g>
<!-- SH -->
<g id="node3" class="node">
<title>SH</title>
<polygon fill="none" stroke="#000000" points="326.601,-254 185.601,-254 181.601,-250 181.601,-216 322.601,-216 326.601,-220 326.601,-254"/>
<polyline fill="none" stroke="#000000" points="322.601,-250 181.601,-250 "/>
<polyline fill="none" stroke="#000000" points="322.601,-250 322.601,-216 "/>
<polyline fill="none" stroke="#000000" points="322.601,-250 326.601,-254 "/>
<text text-anchor="middle" x="254.101" y="-238.8" font-family="Times,serif" font-size="14.00" fill="#000000">Systematically&#45;shifted </text>
<text text-anchor="middle" x="254.101" y="-223.8" font-family="Times,serif" font-size="14.00" fill="#000000">Histograms</text>
</g>
<!-- SE&#45;&gt;SH -->
<g id="edge2" class="edge">
<title>SE&#45;&gt;SH</title>
<path fill="none" stroke="#000000" d="M192.3707,-289.9551C202.217,-281.1895 214.2278,-270.4969 225.029,-260.8812"/>
<polygon fill="#000000" stroke="#000000" points="227.49,-263.3763 232.6318,-254.1128 222.8355,-258.148 227.49,-263.3763"/>
</g>
<!-- sub -->
<g id="node4" class="node">
<title>sub</title>
<polygon fill="none" stroke="#000000" points="422.5121,-180 323.2301,-180 297.69,-144 396.972,-144 422.5121,-180"/>
<text text-anchor="middle" x="360.101" y="-158.3" font-family="Times,serif" font-size="14.00" fill="#000000">Subtract</text>
</g>
<!-- SH&#45;&gt;sub -->
<g id="edge3" class="edge">
<title>SH&#45;&gt;sub</title>
<path fill="none" stroke="#000000" d="M281.9513,-215.8201C295.2601,-206.6546 311.3233,-195.5922 325.4164,-185.8866"/>
<polygon fill="#000000" stroke="#000000" points="327.6438,-188.6024 333.8945,-180.0479 323.6734,-182.8372 327.6438,-188.6024"/>
</g>
<!-- div -->
<g id="node8" class="node">
<title>div</title>
<polygon fill="none" stroke="#000000" points="459.4602,-108 372.9869,-108 350.7419,-72 437.2151,-72 459.4602,-108"/>
<text text-anchor="middle" x="405.101" y="-86.3" font-family="Times,serif" font-size="14.00" fill="#000000">Divide</text>
</g>
<!-- sub&#45;&gt;div -->
<g id="edge10" class="edge">
<title>sub&#45;&gt;div</title>
<path fill="none" stroke="#000000" d="M371.4564,-143.8314C376.5336,-135.7079 382.6237,-125.9637 388.2187,-117.0118"/>
<polygon fill="#000000" stroke="#000000" points="391.2607,-118.7483 393.5927,-108.4133 385.3247,-115.0383 391.2607,-118.7483"/>
</g>
<!-- NM -->
<g id="node5" class="node">
<title>NM</title>
<polygon fill="none" stroke="#000000" points="563.601,-399 418.601,-399 418.601,-363 563.601,-363 563.601,-399"/>
<text text-anchor="middle" x="491.101" y="-377.3" font-family="Times,serif" font-size="14.00" fill="#000000">Nominal Measurement</text>
</g>
<!-- NE -->
<g id="node6" class="node">
<title>NE</title>
<polygon fill="none" stroke="#000000" points="619.7158,-326 415.1185,-326 362.4862,-290 567.0836,-290 619.7158,-326"/>
<text text-anchor="middle" x="491.101" y="-304.3" font-family="Times,serif" font-size="14.00" fill="#000000"> Measurement::Eval</text>
</g>
<!-- NM&#45;&gt;NE -->
<g id="edge4" class="edge">
<title>NM&#45;&gt;NE</title>
<path fill="none" stroke="#000000" d="M491.101,-362.9551C491.101,-354.8828 491.101,-345.1764 491.101,-336.1817"/>
<polygon fill="#000000" stroke="#000000" points="494.6011,-336.0903 491.101,-326.0904 487.6011,-336.0904 494.6011,-336.0903"/>
</g>
<!-- NH -->
<g id="node7" class="node">
<title>NH</title>
<polygon fill="none" stroke="#000000" points="514.101,-253 386.101,-253 386.101,-217 514.101,-217 514.101,-253"/>
<text text-anchor="middle" x="450.101" y="-231.3" font-family="Times,serif" font-size="14.00" fill="#000000">Nominal Histogram</text>
</g>
<!-- NE&#45;&gt;NH -->
<g id="edge5" class="edge">
<title>NE&#45;&gt;NH</title>
<path fill="none" stroke="#000000" d="M480.9662,-289.9551C476.2354,-281.5319 470.5051,-271.3292 465.2726,-262.0128"/>
<polygon fill="#000000" stroke="#000000" points="468.21,-260.0954 460.2614,-253.0904 462.1067,-263.5233 468.21,-260.0954"/>
</g>
<!-- NH&#45;&gt;sub -->
<g id="edge6" class="edge">
<title>NH&#45;&gt;sub</title>
<path fill="none" stroke="#000000" d="M427.8538,-216.9551C416.4955,-207.7422 402.5127,-196.4006 390.2055,-186.418"/>
<polygon fill="#000000" stroke="#000000" points="392.3755,-183.6716 382.4042,-180.0904 387.9658,-189.1081 392.3755,-183.6716"/>
</g>
<!-- NH&#45;&gt;div -->
<g id="edge7" class="edge">
<title>NH&#45;&gt;div</title>
<path fill="none" stroke="#000000" d="M447.6444,-216.871C444.8155,-198.2542 439.4541,-168.605 431.101,-144 428.0389,-134.9801 423.8419,-125.5057 419.7133,-117.0554"/>
<polygon fill="#000000" stroke="#000000" points="422.7835,-115.3708 415.1452,-108.0286 416.5377,-118.5316 422.7835,-115.3708"/>
</g>
<!-- FU -->
<g id="node10" class="node">
<title>FU</title>
<polygon fill="none" stroke="#000000" points="476.601,-36 333.601,-36 333.601,0 476.601,0 476.601,-36"/>
<text text-anchor="middle" x="405.101" y="-14.3" font-family="Times,serif" font-size="14.00" fill="#000000">Fractional Uncertainty</text>
</g>
<!-- div&#45;&gt;FU -->
<g id="edge11" class="edge">
<title>div&#45;&gt;FU</title>
<path fill="none" stroke="#000000" d="M405.101,-71.8314C405.101,-64.131 405.101,-54.9743 405.101,-46.4166"/>
<polygon fill="#000000" stroke="#000000" points="408.6011,-46.4132 405.101,-36.4133 401.6011,-46.4133 408.6011,-46.4132"/>
</g>
<!-- Data -->
<g id="node9" class="node">
<title>Data</title>
<polygon fill="none" stroke="#000000" points="359.101,-399 305.101,-399 305.101,-363 359.101,-363 359.101,-399"/>
<text text-anchor="middle" x="332.101" y="-377.3" font-family="Times,serif" font-size="14.00" fill="#000000">Data</text>
</g>
<!-- Data&#45;&gt;SE -->
<g id="edge8" class="edge">
<title>Data&#45;&gt;SE</title>
<path fill="none" stroke="#000000" d="M304.9592,-368.6165C281.9698,-358.1276 248.4393,-342.8293 220.8159,-330.2261"/>
<polygon fill="#000000" stroke="#000000" points="222.2488,-327.0329 211.6981,-326.0662 219.3431,-333.4014 222.2488,-327.0329"/>
</g>
<!-- Data&#45;&gt;NE -->
<g id="edge9" class="edge">
<title>Data&#45;&gt;NE</title>
<path fill="none" stroke="#000000" d="M359.4341,-368.4509C382.1498,-358.0217 415.0389,-342.9216 442.2629,-330.4226"/>
<polygon fill="#000000" stroke="#000000" points="444.0025,-333.4752 451.6301,-326.1219 441.0818,-327.1136 444.0025,-333.4752"/>
</g>
</g>
</svg>
