<?xml version="1.0" encoding="UTF-8" standalone="no"?>
<!DOCTYPE svg PUBLIC "-//W3C//DTD SVG 1.1//EN"
 "http://www.w3.org/Graphics/SVG/1.1/DTD/svg11.dtd">
<!-- Generated by graphviz version 2.40.1 (20161225.0304)
 -->
<!-- Pages: 1 -->
<svg width="226pt" height="209pt"
 viewBox="0.00 0.00 225.90 209.41" xmlns="http://www.w3.org/2000/svg" xmlns:xlink="http://www.w3.org/1999/xlink">
<g id="graph0" class="graph" transform="scale(1 1) rotate(0) translate(4 205.4083)">
<polygon fill="#ffffff" stroke="transparent" points="-4,4 -4,-205.4083 221.895,-205.4083 221.895,4 -4,4"/>
<!-- 1&#45;sided\n(1 T) -->
<g id="node1" class="node">
<title>1&#45;sided\n(1 T)</title>
<polygon fill="none" stroke="#000000" points="58,-118.1125 4,-118.1125 0,-114.1125 0,-80.1125 54,-80.1125 58,-84.1125 58,-118.1125"/>
<polyline fill="none" stroke="#000000" points="54,-114.1125 0,-114.1125 "/>
<polyline fill="none" stroke="#000000" points="54,-114.1125 54,-80.1125 "/>
<polyline fill="none" stroke="#000000" points="54,-114.1125 58,-118.1125 "/>
<text text-anchor="middle" x="29" y="-102.9125" font-family="Times,serif" font-size="14.00" fill="#000000">1&#45;sided</text>
<text text-anchor="middle" x="29" y="-87.9125" font-family="Times,serif" font-size="14.00" fill="#000000">(1 T)</text>
</g>
<!-- Systematic&lt;T&gt; -->
<g id="node2" class="node">
<title>Systematic&lt;T&gt;</title>
<ellipse fill="none" stroke="#000000" cx="129.6234" cy="-92.5035" rx="66.5" ry="18"/>
<text text-anchor="middle" x="129.6234" y="-88.8035" font-family="Times,serif" font-size="14.00" fill="#000000">Systematic&lt;T&gt;</text>
</g>
<!-- Systematic&lt;T&gt;&#45;&#45;1&#45;sided\n(1 T) -->
<g id="edge1" class="edge">
<title>Systematic&lt;T&gt;&#45;&#45;1&#45;sided\n(1 T)</title>
<path fill="none" stroke="#000000" d="M64.7594,-96.7638C62.4777,-96.9137 60.2397,-97.0607 58.0665,-97.2034"/>
</g>
<!-- 2&#45;sided\n(2 T) -->
<g id="node3" class="node">
<title>2&#45;sided\n(2 T)</title>
<polygon fill="none" stroke="#000000" points="215.4277,-38 161.4277,-38 157.4277,-34 157.4277,0 211.4277,0 215.4277,-4 215.4277,-38"/>
<polyline fill="none" stroke="#000000" points="211.4277,-34 157.4277,-34 "/>
<polyline fill="none" stroke="#000000" points="211.4277,-34 211.4277,0 "/>
<polyline fill="none" stroke="#000000" points="211.4277,-34 215.4277,-38 "/>
<text text-anchor="middle" x="186.4277" y="-22.8" font-family="Times,serif" font-size="14.00" fill="#000000">2&#45;sided</text>
<text text-anchor="middle" x="186.4277" y="-7.8" font-family="Times,serif" font-size="14.00" fill="#000000">(2 T)</text>
</g>
<!-- Systematic&lt;T&gt;&#45;&#45;2&#45;sided\n(2 T) -->
<g id="edge2" class="edge">
<title>Systematic&lt;T&gt;&#45;&#45;2&#45;sided\n(2 T)</title>
<path fill="none" stroke="#000000" d="M143.3742,-74.7104C151.9112,-63.6636 162.8802,-49.47 171.6097,-38.1742"/>
</g>
<!-- Multiverse\n(N T) -->
<g id="node4" class="node">
<title>Multiverse\n(N T)</title>
<polygon fill="none" stroke="#000000" points="217.895,-201.4083 144.895,-201.4083 140.895,-197.4083 140.895,-163.4083 213.895,-163.4083 217.895,-167.4083 217.895,-201.4083"/>
<polyline fill="none" stroke="#000000" points="213.895,-197.4083 140.895,-197.4083 "/>
<polyline fill="none" stroke="#000000" points="213.895,-197.4083 213.895,-163.4083 "/>
<polyline fill="none" stroke="#000000" points="213.895,-197.4083 217.895,-201.4083 "/>
<text text-anchor="middle" x="179.395" y="-186.2083" font-family="Times,serif" font-size="14.00" fill="#000000">Multiverse</text>
<text text-anchor="middle" x="179.395" y="-171.2083" font-family="Times,serif" font-size="14.00" fill="#000000">(N T)</text>
</g>
<!-- Systematic&lt;T&gt;&#45;&#45;Multiverse\n(N T) -->
<g id="edge3" class="edge">
<title>Systematic&lt;T&gt;&#45;&#45;Multiverse\n(N T)</title>
<path fill="none" stroke="#000000" d="M139.6955,-110.6971C148.1602,-125.9873 160.2201,-147.7717 168.8226,-163.3109"/>
</g>
</g>
</svg>
