<?xml version="1.0" encoding="UTF-8" standalone="no"?>
<!DOCTYPE svg PUBLIC "-//W3C//DTD SVG 1.1//EN"
 "http://www.w3.org/Graphics/SVG/1.1/DTD/svg11.dtd">
<!-- Generated by graphviz version 2.40.1 (20161225.0304)
 -->
<!-- Pages: 1 -->
<svg width="324pt" height="44pt"
 viewBox="0.00 0.00 324.00 44.00" xmlns="http://www.w3.org/2000/svg" xmlns:xlink="http://www.w3.org/1999/xlink">
<g id="graph0" class="graph" transform="scale(1 1) rotate(0) translate(4 40)">
<polygon fill="#ffffff" stroke="transparent" points="-4,4 -4,-40 320,-40 320,4 -4,4"/>
<!-- SSE -->
<g id="node1" class="node">
<title>SSE</title>
<polygon fill="none" stroke="#000000" points="116,-36 4,-36 0,-32 0,0 112,0 116,-4 116,-36"/>
<polyline fill="none" stroke="#000000" points="112,-32 0,-32 "/>
<polyline fill="none" stroke="#000000" points="112,-32 112,0 "/>
<polyline fill="none" stroke="#000000" points="112,-32 116,-36 "/>
<text text-anchor="middle" x="58" y="-14.3" font-family="Times,serif" font-size="14.00" fill="#000000">Signal Estimators</text>
</g>
<!-- NSE -->
<g id="node2" class="node">
<title>NSE</title>
<polygon fill="none" stroke="#000000" points="244,-36 134,-36 134,0 244,0 244,-36"/>
<text text-anchor="middle" x="189" y="-14.3" font-family="Times,serif" font-size="14.00" fill="#000000">Signal Estimator</text>
</g>
<!-- Data -->
<g id="node3" class="node">
<title>Data</title>
<polygon fill="none" stroke="#000000" points="316,-36 262,-36 262,0 316,0 316,-36"/>
<text text-anchor="middle" x="289" y="-14.3" font-family="Times,serif" font-size="14.00" fill="#000000">Data</text>
</g>
</g>
</svg>
