<?xml version="1.0" encoding="UTF-8" standalone="no"?>
<!DOCTYPE svg PUBLIC "-//W3C//DTD SVG 1.1//EN"
 "http://www.w3.org/Graphics/SVG/1.1/DTD/svg11.dtd">
<!-- Generated by graphviz version 2.40.1 (20161225.0304)
 -->
<!-- Pages: 1 -->
<svg width="511pt" height="640pt"
 viewBox="0.00 0.00 511.00 640.00" xmlns="http://www.w3.org/2000/svg" xmlns:xlink="http://www.w3.org/1999/xlink">
<g id="graph0" class="graph" transform="scale(1 1) rotate(0) translate(4 636)">
<polygon fill="#ffffff" stroke="transparent" points="-4,4 -4,-636 507,-636 507,4 -4,4"/>
<g id="clust1" class="cluster">
<title>cluster_Nominal</title>
<polygon fill="none" stroke="#000000" points="14,-383 14,-516 206,-516 206,-383 14,-383"/>
<text text-anchor="middle" x="110" y="-500.8" font-family="Times,serif" font-size="14.00" fill="#000000">Nominal</text>
</g>
<g id="clust2" class="cluster">
<title>cluster_propagator</title>
<path fill="none" stroke="#000000" d="M20,-64C20,-64 406,-64 406,-64 412,-64 418,-70 418,-76 418,-76 418,-363 418,-363 418,-369 412,-375 406,-375 406,-375 20,-375 20,-375 14,-375 8,-369 8,-363 8,-363 8,-76 8,-76 8,-70 14,-64 20,-64"/>
<text text-anchor="middle" x="213" y="-359.8" font-family="Times,serif" font-size="14.00" fill="#000000">TemplateFitUncertaintyPropagator</text>
</g>
<g id="clust3" class="cluster">
<title>cluster_Shifted</title>
<polygon fill="none" stroke="#000000" points="253,-383 253,-516 445,-516 445,-383 253,-383"/>
<text text-anchor="middle" x="349" y="-500.8" font-family="Times,serif" font-size="14.00" fill="#000000">Systematically Shifted</text>
</g>
<!-- NM -->
<g id="node1" class="node">
<title>NM</title>
<polygon fill="none" stroke="#000000" points="22.5,-391.5 22.5,-484.5 197.5,-484.5 197.5,-391.5 22.5,-391.5"/>
<text text-anchor="middle" x="110" y="-469.3" font-family="Times,serif" font-size="14.00" fill="#000000">TemplateFitSignalEstimator</text>
<polyline fill="none" stroke="#000000" points="22.5,-461.5 197.5,-461.5 "/>
<text text-anchor="middle" x="110" y="-446.3" font-family="Times,serif" font-size="14.00" fill="#000000">SimpleFlux</text>
<polyline fill="none" stroke="#000000" points="22.5,-438.5 197.5,-438.5 "/>
<text text-anchor="middle" x="110" y="-423.3" font-family="Times,serif" font-size="14.00" fill="#000000">SimpleEfficiency</text>
<polyline fill="none" stroke="#000000" points="22.5,-415.5 197.5,-415.5 "/>
<text text-anchor="middle" x="110" y="-399.8" font-family="Times,serif" font-size="14.00" fill="#000000">IterativeUnfold</text>
</g>
<!-- cov -->
<g id="node2" class="node">
<title>cov</title>
<ellipse fill="none" stroke="#000000" cx="230" cy="-317" rx="86.5" ry="27"/>
<text text-anchor="middle" x="230" y="-320.8" font-family="Times,serif" font-size="14.00" fill="#000000">Calculate </text>
<text text-anchor="middle" x="230" y="-305.8" font-family="Times,serif" font-size="14.00" fill="#000000">Covariance Matrix</text>
</g>
<!-- NM&#45;&gt;cov -->
<g id="edge10" class="edge">
<title>NM:TF&#45;&gt;cov</title>
<path fill="none" stroke="#000000" d="M198,-473C246.3222,-473 243.5777,-400.2833 236.9725,-354.1429"/>
<polygon fill="#000000" stroke="#000000" points="240.4177,-353.5194 235.428,-344.1731 233.5002,-354.5911 240.4177,-353.5194"/>
</g>
<!-- Fit -->
<g id="node3" class="node">
<title>Fit</title>
<ellipse fill="none" stroke="#000000" cx="230" cy="-236" rx="27" ry="18"/>
<text text-anchor="middle" x="230" y="-232.3" font-family="Times,serif" font-size="14.00" fill="#000000">Fit</text>
</g>
<!-- NM&#45;&gt;Fit -->
<g id="edge11" class="edge">
<title>NM:TF&#45;&gt;Fit</title>
<path fill="none" stroke="#000000" d="M110,-485C110,-504.4444 183.7507,-498.7493 197.5,-485 227.0413,-455.4587 223.1176,-424.0018 197.5,-391 179.9177,-368.3497 152.5823,-397.6503 135,-375 111.8351,-345.1579 116.0012,-322.6528 135,-290 147.907,-267.817 173.7016,-253.9993 195.1589,-245.9004"/>
<polygon fill="#000000" stroke="#000000" points="196.372,-249.184 204.6506,-242.5722 194.0557,-242.5783 196.372,-249.184"/>
</g>
<!-- NH -->
<g id="node8" class="node">
<title>NH</title>
<ellipse fill="none" stroke="#000000" cx="76" cy="-236" rx="60" ry="18"/>
<text text-anchor="middle" x="76" y="-232.3" font-family="Times,serif" font-size="14.00" fill="#000000">Nominal Hist</text>
</g>
<!-- NM&#45;&gt;NH -->
<g id="edge12" class="edge">
<title>NM:F&#45;&gt;NH</title>
<path fill="none" stroke="#000000" d="M22,-450C6.9133,-450 3.9408,-340.7602 25,-290 29.6628,-278.761 37.8171,-268.4708 46.2555,-259.9568"/>
<polygon fill="#000000" stroke="#000000" points="48.8016,-262.3663 53.6637,-252.9529 43.9926,-257.2797 48.8016,-262.3663"/>
</g>
<!-- NM&#45;&gt;NH -->
<g id="edge13" class="edge">
<title>NM:E&#45;&gt;NH</title>
<path fill="none" stroke="#000000" d="M22,-427C6,-427 13.6757,-404.6641 22,-391 30.0666,-377.759 43.8761,-387.5359 53,-375 76.5879,-342.5911 79.4017,-294.7158 78.3721,-264.4556"/>
<polygon fill="#000000" stroke="#000000" points="81.8524,-263.9752 77.8503,-254.1653 74.8613,-264.3298 81.8524,-263.9752"/>
</g>
<!-- NM&#45;&gt;NH -->
<g id="edge14" class="edge">
<title>NM:U&#45;&gt;NH</title>
<path fill="none" stroke="#000000" d="M22,-403C16.6667,-403 21.2088,-396.2743 22,-391 25.483,-367.7819 44.9444,-312.0526 53,-290 56.1663,-281.3319 59.9708,-272.0388 63.5656,-263.6476"/>
<polygon fill="#000000" stroke="#000000" points="66.8514,-264.8685 67.6386,-254.303 60.4345,-262.0716 66.8514,-264.8685"/>
</g>
<!-- cov&#45;&gt;Fit -->
<g id="edge1" class="edge">
<title>cov&#45;&gt;Fit</title>
<path fill="none" stroke="#000000" d="M230,-289.5771C230,-281.5353 230,-272.7228 230,-264.6091"/>
<polygon fill="#000000" stroke="#000000" points="233.5001,-264.4688 230,-254.4688 226.5001,-264.4689 233.5001,-264.4688"/>
</g>
<!-- SE -->
<g id="node4" class="node">
<title>SE</title>
<polygon fill="none" stroke="#000000" points="152,-181 36,-181 36,-145 152,-145 152,-181"/>
<text text-anchor="middle" x="94" y="-159.3" font-family="Times,serif" font-size="14.00" fill="#000000">Signal Estimation</text>
</g>
<!-- Fit&#45;&gt;SE -->
<g id="edge2" class="edge">
<title>Fit&#45;&gt;SE</title>
<path fill="none" stroke="#000000" d="M208.75,-224.5938C189.5392,-214.2821 160.6799,-198.7914 136.7098,-185.9251"/>
<polygon fill="#000000" stroke="#000000" points="138.259,-182.7844 127.7927,-181.1387 134.9484,-188.952 138.259,-182.7844"/>
</g>
<!-- SEU -->
<g id="node5" class="node">
<title>SEU</title>
<polygon fill="none" stroke="#000000" points="290,-182 170,-182 170,-144 290,-144 290,-182"/>
<text text-anchor="middle" x="230" y="-166.8" font-family="Times,serif" font-size="14.00" fill="#000000">Signal Estimation </text>
<text text-anchor="middle" x="230" y="-151.8" font-family="Times,serif" font-size="14.00" fill="#000000">Uncertainty</text>
</g>
<!-- Fit&#45;&gt;SEU -->
<g id="edge3" class="edge">
<title>Fit&#45;&gt;SEU</title>
<path fill="none" stroke="#000000" d="M230,-217.9551C230,-210.2107 230,-200.9622 230,-192.2811"/>
<polygon fill="#000000" stroke="#000000" points="233.5001,-192.1128 230,-182.1128 226.5001,-192.1129 233.5001,-192.1128"/>
</g>
<!-- div1 -->
<g id="node6" class="node">
<title>div1</title>
<polygon fill="none" stroke="#000000" points="92,-108 41.3926,-90 92,-72 142.6074,-90 92,-108"/>
<text text-anchor="middle" x="92" y="-86.3" font-family="Times,serif" font-size="14.00" fill="#000000">Divide</text>
</g>
<!-- SE&#45;&gt;div1 -->
<g id="edge4" class="edge">
<title>SE&#45;&gt;div1</title>
<path fill="none" stroke="#000000" d="M93.5056,-144.9551C93.2828,-136.8221 93.0145,-127.0303 92.7665,-117.979"/>
<polygon fill="#000000" stroke="#000000" points="96.2613,-117.7377 92.4887,-107.8374 89.264,-117.9295 96.2613,-117.7377"/>
</g>
<!-- QS -->
<g id="node7" class="node">
<title>QS</title>
<ellipse fill="none" stroke="#000000" cx="232" cy="-90" rx="71" ry="18"/>
<text text-anchor="middle" x="232" y="-86.3" font-family="Times,serif" font-size="14.00" fill="#000000">Quadrature Sum</text>
</g>
<!-- SEU&#45;&gt;QS -->
<g id="edge5" class="edge">
<title>SEU&#45;&gt;QS</title>
<path fill="none" stroke="#000000" d="M230.5255,-143.8201C230.7371,-136.0975 230.9855,-127.0282 231.2176,-118.5585"/>
<polygon fill="#000000" stroke="#000000" points="234.7234,-118.3895 231.4987,-108.2973 227.7261,-118.1977 234.7234,-118.3895"/>
</g>
<!-- R -->
<g id="node12" class="node">
<title>R</title>
<polygon fill="none" stroke="#000000" points="228.5,-36 95.5,-36 95.5,0 228.5,0 228.5,-36"/>
<text text-anchor="middle" x="162" y="-14.3" font-family="Times,serif" font-size="14.00" fill="#000000">Result + Uncertainty</text>
</g>
<!-- div1&#45;&gt;R -->
<g id="edge19" class="edge">
<title>div1&#45;&gt;R</title>
<path fill="none" stroke="#000000" d="M105.1665,-76.4574C114.1764,-67.19 126.4003,-54.6168 137.2032,-43.5052"/>
<polygon fill="#000000" stroke="#000000" points="139.9369,-45.7145 144.3982,-36.1047 134.9179,-40.8349 139.9369,-45.7145"/>
</g>
<!-- QS&#45;&gt;R -->
<g id="edge20" class="edge">
<title>QS&#45;&gt;R</title>
<path fill="none" stroke="#000000" d="M214.6966,-72.2022C206.2628,-63.5275 195.9686,-52.9391 186.724,-43.4304"/>
<polygon fill="#000000" stroke="#000000" points="189.0708,-40.8233 179.5905,-36.0931 184.0519,-45.7029 189.0708,-40.8233"/>
</g>
<!-- NH&#45;&gt;div1 -->
<g id="edge6" class="edge">
<title>NH&#45;&gt;div1</title>
<path fill="none" stroke="#000000" d="M54.6063,-219.181C44.1389,-209.5593 32.6081,-196.526 27,-182 20.9172,-166.2446 19.8249,-159.289 27,-144 34.4136,-128.2028 48.9703,-115.4277 62.4319,-106.2767"/>
<polygon fill="#000000" stroke="#000000" points="64.4842,-109.1191 71.0338,-100.7912 60.7204,-103.217 64.4842,-109.1191"/>
</g>
<!-- div2 -->
<g id="node9" class="node">
<title>div2</title>
<polygon fill="none" stroke="#000000" points="359,-181 308.3926,-163 359,-145 409.6074,-163 359,-181"/>
<text text-anchor="middle" x="359" y="-159.3" font-family="Times,serif" font-size="14.00" fill="#000000">Divide</text>
</g>
<!-- NH&#45;&gt;div2 -->
<g id="edge7" class="edge">
<title>NH&#45;&gt;div2</title>
<path fill="none" stroke="#000000" d="M124.535,-225.265C169.877,-214.9959 239.3372,-198.6489 299,-182 306.844,-179.8111 315.2062,-177.2863 323.1202,-174.8067"/>
<polygon fill="#000000" stroke="#000000" points="324.3627,-178.0844 332.832,-171.7188 322.2415,-171.4135 324.3627,-178.0844"/>
</g>
<!-- div2&#45;&gt;QS -->
<g id="edge8" class="edge">
<title>div2&#45;&gt;QS</title>
<path fill="none" stroke="#000000" d="M339.4346,-151.7537C320.8841,-141.0909 292.5219,-124.7882 269.5963,-111.6105"/>
<polygon fill="#000000" stroke="#000000" points="271.2038,-108.4975 260.7897,-106.5484 267.7153,-114.5663 271.2038,-108.4975"/>
</g>
<!-- SH -->
<g id="node10" class="node">
<title>SH</title>
<ellipse fill="none" stroke="#000000" cx="352" cy="-236" rx="58" ry="18"/>
<text text-anchor="middle" x="352" y="-232.3" font-family="Times,serif" font-size="14.00" fill="#000000">Shifted Hists</text>
</g>
<!-- SH&#45;&gt;div2 -->
<g id="edge9" class="edge">
<title>SH&#45;&gt;div2</title>
<path fill="none" stroke="#000000" d="M353.7303,-217.9551C354.516,-209.7614 355.4632,-199.8841 356.3365,-190.7765"/>
<polygon fill="#000000" stroke="#000000" points="359.8431,-190.8739 357.3137,-180.5855 352.8751,-190.2057 359.8431,-190.8739"/>
</g>
<!-- SM -->
<g id="node11" class="node">
<title>SM</title>
<polygon fill="none" stroke="#000000" points="261.5,-391.5 261.5,-484.5 436.5,-484.5 436.5,-391.5 261.5,-391.5"/>
<text text-anchor="middle" x="349" y="-469.3" font-family="Times,serif" font-size="14.00" fill="#000000">TemplateFitSignalEstimator</text>
<polyline fill="none" stroke="#000000" points="261.5,-461.5 436.5,-461.5 "/>
<text text-anchor="middle" x="349" y="-446.3" font-family="Times,serif" font-size="14.00" fill="#000000">SimpleFlux</text>
<polyline fill="none" stroke="#000000" points="261.5,-438.5 436.5,-438.5 "/>
<text text-anchor="middle" x="349" y="-423.3" font-family="Times,serif" font-size="14.00" fill="#000000">SimpleEfficiency</text>
<polyline fill="none" stroke="#000000" points="261.5,-415.5 436.5,-415.5 "/>
<text text-anchor="middle" x="349" y="-399.8" font-family="Times,serif" font-size="14.00" fill="#000000">IterativeUnfold</text>
</g>
<!-- SM&#45;&gt;cov -->
<g id="edge15" class="edge">
<title>SM:TF&#45;&gt;cov</title>
<path fill="none" stroke="#000000" d="M261,-473C212.7378,-473 215.9265,-400.2833 222.8076,-354.1429"/>
<polygon fill="#000000" stroke="#000000" points="226.2786,-354.6021 224.4115,-344.1731 219.3675,-353.4902 226.2786,-354.6021"/>
</g>
<!-- SM&#45;&gt;SH -->
<g id="edge16" class="edge">
<title>SM:F&#45;&gt;SH</title>
<path fill="none" stroke="#000000" d="M261,-450C234.7778,-450 244.8251,-411.6392 261,-391 279.3517,-367.5831 305.5647,-396.6225 326,-375 354.0572,-345.3127 356.6266,-295.4996 354.9871,-264.2617"/>
<polygon fill="#000000" stroke="#000000" points="358.4619,-263.7794 354.2666,-254.0506 351.4792,-264.2722 358.4619,-263.7794"/>
</g>
<!-- SM&#45;&gt;SH -->
<g id="edge17" class="edge">
<title>SM:E&#45;&gt;SH</title>
<path fill="none" stroke="#000000" d="M437,-427C453,-427 439.9989,-406.7165 437,-391 427.9507,-343.5746 421.6536,-331.5122 397,-290 390.9886,-279.8779 383.1177,-269.7164 375.6424,-260.9825"/>
<polygon fill="#000000" stroke="#000000" points="378.1951,-258.5855 368.9531,-253.405 372.9473,-263.2181 378.1951,-258.5855"/>
</g>
<!-- SM&#45;&gt;SH -->
<g id="edge18" class="edge">
<title>SM:U&#45;&gt;SH</title>
<path fill="none" stroke="#000000" d="M349,-391C349,-383.5498 352.876,-382.365 354,-375 359.6993,-337.6546 354.6992,-327.7713 354,-290 353.8479,-281.7824 353.5656,-272.865 353.2602,-264.6892"/>
<polygon fill="#000000" stroke="#000000" points="356.7492,-264.3425 352.8542,-254.4897 349.7548,-264.621 356.7492,-264.3425"/>
</g>
<!-- Fill -->
<g id="node13" class="node">
<title>Fill</title>
<path fill="none" stroke="#000000" d="M421,-628.7273C421,-630.5331 388.7284,-632 349,-632 309.2716,-632 277,-630.5331 277,-628.7273 277,-628.7273 277,-599.2727 277,-599.2727 277,-597.4669 309.2716,-596 349,-596 388.7284,-596 421,-597.4669 421,-599.2727 421,-599.2727 421,-628.7273 421,-628.7273"/>
<path fill="none" stroke="#000000" d="M421,-628.7273C421,-626.9214 388.7284,-625.4545 349,-625.4545 309.2716,-625.4545 277,-626.9214 277,-628.7273"/>
<text text-anchor="middle" x="349" y="-610.3" font-family="Times,serif" font-size="14.00" fill="#000000">Histogram Fill Service</text>
</g>
<!-- I -->
<g id="node14" class="node">
<title>I</title>
<polygon fill="none" stroke="#000000" points="461.4754,-560 282.5522,-560 236.5246,-524 415.4478,-524 461.4754,-560"/>
<text text-anchor="middle" x="349" y="-538.3" font-family="Times,serif" font-size="14.00" fill="#000000">Interfacing Layer</text>
</g>
<!-- Fill&#45;&gt;I -->
<g id="edge21" class="edge">
<title>Fill&#45;&gt;I</title>
<path fill="none" stroke="#000000" d="M349,-595.8314C349,-588.131 349,-578.9743 349,-570.4166"/>
<polygon fill="#000000" stroke="#000000" points="352.5001,-570.4132 349,-560.4133 345.5001,-570.4133 352.5001,-570.4132"/>
</g>
<!-- I&#45;&gt;NM -->
<g id="edge22" class="edge">
<title>I&#45;&gt;NM</title>
<path fill="none" stroke="#000000" d="M271.376,-523.9388C263.7277,-521.5287 256.155,-518.8816 249,-516 237.7539,-511.4707 226.2858,-506.2071 215.0011,-500.5932"/>
<polygon fill="#000000" stroke="#000000" points="216.4993,-497.4286 205.9981,-496.0231 213.3308,-503.6705 216.4993,-497.4286"/>
</g>
<!-- I&#45;&gt;SM -->
<g id="edge23" class="edge">
<title>I&#45;&gt;SM</title>
<path fill="none" stroke="#000000" d="M349,-523.8846C349,-523.7306 349,-523.5758 349,-523.4204"/>
<polygon fill="#000000" stroke="#000000" points="352.5001,-525.9981 349,-515.9982 345.5001,-525.9982 352.5001,-525.9981"/>
</g>
<!-- Data -->
<g id="node15" class="node">
<title>Data</title>
<polygon fill="none" stroke="#000000" points="503,-335 449,-335 449,-299 503,-299 503,-335"/>
<text text-anchor="middle" x="476" y="-313.3" font-family="Times,serif" font-size="14.00" fill="#000000">Data</text>
</g>
<!-- I&#45;&gt;Data -->
<g id="edge24" class="edge">
<title>I&#45;&gt;Data</title>
<path fill="none" stroke="#000000" d="M422.0849,-528.7901C434.3816,-525.2322 444.5955,-520.9651 449,-516 491.2324,-468.3927 486.9668,-387.5056 481.0401,-344.9995"/>
<polygon fill="#000000" stroke="#000000" points="484.4925,-344.4214 479.5248,-335.0634 477.5725,-345.4768 484.4925,-344.4214"/>
</g>
<!-- Data&#45;&gt;Fit -->
<g id="edge25" class="edge">
<title>Data&#45;&gt;Fit</title>
<path fill="none" stroke="#000000" d="M448.7429,-302.0005C440.3292,-297.7465 430.9258,-293.3628 422,-290 363.0865,-267.8042 345.3876,-271.7987 285,-254 278.2013,-251.9962 270.973,-249.7298 264.0681,-247.4978"/>
<polygon fill="#000000" stroke="#000000" points="264.8634,-244.0753 254.2707,-244.2867 262.6833,-250.7272 264.8634,-244.0753"/>
</g>
</g>
</svg>
